<svg xmlns="http://www.w3.org/2000/svg" width="128.026" height="28.8" viewBox="0 0 128.026 28.8">
    <defs>
        <style>
            .a {
                fill: #f1f0ed;
            }
        </style>
    </defs><path class="a" d="M181.645,17.053a2.327,2.327,0,1,0-2.345-2.327h0a2.372,2.372,0,0,0,2.345,2.327" transform="translate(-74.666 -12.4)"/><path class="a" d="M35.488,20.952H32.446c-.951,0-1.077.126-2.155,1.195l-9.759,9.747V16.613A.758.758,0,0,0,19.9,15.8h-4.88a.762.762,0,0,0-.824.629v2.264a.758.758,0,0,0,.634.817h1.9V38.37H15.019A.762.762,0,0,0,14.2,39v2.264a.758.758,0,0,0,.634.817h7.288a.716.716,0,0,0,.824-.566V39.187a.758.758,0,0,0-.634-.817H20.469V36.8l3.676-3.71,6.464,7.8c.824,1.069.824,1.069,2.091,1.069h2.788a.667.667,0,0,0,.76-.629V39.187a.758.758,0,0,0-.634-.817H33.143l-6.4-7.86,5.83-5.911h2.852a.7.7,0,0,0,.76-.629V21.706a.711.711,0,0,0-.634-.817c.063.063,0,.063-.063.063" transform="translate(-14.187 -13.657)"/><path class="a" d="M74.319,41.193H72.608V32.2c0-5.345-3.422-8.8-8.682-8.8a8.5,8.5,0,0,0-6.02,2.2V24.593a.665.665,0,0,0-.634-.755H52.519a.715.715,0,0,0-.824.629v2.264a.758.758,0,0,0,.634.817h1.9V41.256H52.519a.762.762,0,0,0-.824.629v2.264a.714.714,0,0,0,.7.755h7.224a.762.762,0,0,0,.824-.629V42.011a.758.758,0,0,0-.634-.817H57.969V32.83a5.62,5.62,0,0,1,5.767-5.911c3.359,0,5.2,2.075,5.2,5.659v8.615H67.221a.678.678,0,0,0-.76.692v2.264a.758.758,0,0,0,.634.817h7.288a.762.762,0,0,0,.824-.629V42.011a.758.758,0,0,0-.634-.817h-.253" transform="translate(-27.923 -16.481)"/><path class="a" d="M99.435,23.4A10.79,10.79,0,0,0,88.6,34.153V34.4A10.72,10.72,0,0,0,99.182,45.283h.19a10.845,10.845,0,0,0,10.9-10.753v-.189A10.72,10.72,0,0,0,99.688,23.463a.482.482,0,0,0-.253-.063m0,18.3a7.123,7.123,0,0,1-6.971-7.42,6.963,6.963,0,0,1,6.907-7.294,7.174,7.174,0,0,1,7.034,7.42A7.013,7.013,0,0,1,99.435,41.7" transform="translate(-41.442 -16.483)"/><path class="a" d="M153.888,23.994H146.6a.715.715,0,0,0-.824.629v2.264a.758.758,0,0,0,.634.817h1.838l-3.485,11.13-4.943-14.211a.953.953,0,0,0-.887-.629h-1.458a.953.953,0,0,0-.887.629l-4.88,14.211-3.485-11.193h1.648a.762.762,0,0,0,.824-.629V24.749a.665.665,0,0,0-.634-.755h-7.541a.762.762,0,0,0-.824.629v2.2a.758.758,0,0,0,.634.817h1.838l5.767,16.852a.953.953,0,0,0,.887.629h1.584a.953.953,0,0,0,.887-.629l4.816-13.834,4.816,13.834a.953.953,0,0,0,.887.629H145.4a.953.953,0,0,0,.887-.629l5.83-16.852h1.711a.762.762,0,0,0,.824-.629v-2.2a.665.665,0,0,0-.634-.755c0-.063-.063-.063-.127-.063" transform="translate(-53.563 -16.7)"/><path class="a" d="M183.411,41.451H181.7V24.85a.665.665,0,0,0-.634-.755H176.25a.667.667,0,0,0-.76.629v2.264a.758.758,0,0,0,.634.817h1.9V41.514h-3.105a.762.762,0,0,0-.824.629v2.264a.758.758,0,0,0,.634.817h8.682a.762.762,0,0,0,.824-.629V42.268a.758.758,0,0,0-.634-.817h-.19" transform="translate(-72.757 -16.738)"/><path class="a" d="M206.078,31.364H204.05a.762.762,0,0,0-.824.629V36.08a2.668,2.668,0,0,1-2.535,2.767c-2.028,0-2.915-.817-2.915-2.83V24.7h4.943a.762.762,0,0,0,.824-.629V21.806a.665.665,0,0,0-.634-.755h-5.07V16.713a.711.711,0,0,0-.634-.817h-2.345a.762.762,0,0,0-.824.629v4.59h-2.281a.667.667,0,0,0-.76.629v2.2a.758.758,0,0,0,.634.817H194.1V36.269c0,3.773,2.471,6.225,6.337,6.225,3.992,0,6.527-2.39,6.527-6.037V32.245a.758.758,0,0,0-.634-.817c-.063-.063-.127-.063-.253-.063" transform="translate(-78.947 -13.694)"/></svg>
