<svg width="24" height="24" viewBox="0 0 24 24" xmlns="http://www.w3.org/2000/svg">
    <path fill-rule="evenodd" clip-rule="evenodd" d="M10.992 21.5849V24H12.992V21.5849L19.9715 17.6589L22.9999 19.3706L23.9841 17.6295L20.992 15.9383V8.06174L23.9841 6.37058L22.9999 4.62946L19.9715 6.34115L12.992 2.41516V0H10.992V2.41516L4.01245 6.34116L0.984053 4.62946L-6.10352e-05 6.37058L2.992 8.06175V15.9383L-6.10352e-05 17.6295L0.984053 19.3706L4.01247 17.6589L10.992 21.5849ZM4.992 9.19218V14.8079L9.95971 12L4.992 9.19218ZM12.992 13.7139V19.2902L17.9367 16.5088L12.992 13.7139ZM18.992 14.8079L14.0243 12L18.992 9.19217V14.8079ZM10.992 10.2861L6.04727 7.49127L10.992 4.70986V10.2861ZM12.992 4.70986L17.9367 7.49127L12.992 10.2861V4.70986ZM10.992 13.7139L6.04728 16.5088L10.992 19.2902V13.7139Z"/>
</svg>
